<svg width="264" height="38" viewBox="0 0 264 38" fill="none" xmlns="http://www.w3.org/2000/svg">
<path d="M53.124 31.872V20.64C51.7373 22.0267 50.186 23.188 48.47 24.124C48.262 23.7253 47.976 23.3093 47.612 22.876C47.248 22.4427 46.884 22.096 46.52 21.836C48.3227 20.8307 49.8913 19.6607 51.226 18.326C52.5607 16.974 53.644 15.4573 54.476 13.776H47.274V10.994H55.568C55.7067 10.4913 55.8193 9.98867 55.906 9.486C56.01 8.98333 56.0967 8.46333 56.166 7.926L59.52 8.342C59.4333 8.79267 59.338 9.24333 59.234 9.694C59.13 10.1273 59.0087 10.5607 58.87 10.994H70.752V13.776H57.83C57.6567 14.1227 57.4833 14.4693 57.31 14.816C57.154 15.1453 56.9807 15.4833 56.79 15.83H66.904V29.09C66.904 30.9447 65.786 31.872 63.55 31.872H61.262C61.2273 31.4387 61.1407 30.91 61.002 30.286C60.8633 29.6793 60.716 29.2027 60.56 28.856H62.692C63.056 28.856 63.316 28.7953 63.472 28.674C63.628 28.5527 63.706 28.3187 63.706 27.972V26.438H56.322V31.872H53.124ZM56.322 24.046H63.706V22.486H56.322V24.046ZM56.322 20.068H63.706V18.508H56.322V20.068ZM82.036 31.976L81.308 29.116C81.7067 29.064 82.2093 28.986 82.816 28.882C83.44 28.7607 84.0987 28.6307 84.792 28.492V9.07H96.648V20.25H91.76C91.916 21.3073 92.2193 22.3213 92.67 23.292C93.3287 22.8413 93.996 22.3473 94.672 21.81C95.348 21.2727 95.8767 20.796 96.258 20.38L98.286 22.408C97.9567 22.72 97.5493 23.0667 97.064 23.448C96.5787 23.812 96.076 24.1847 95.556 24.566C95.036 24.93 94.5507 25.2593 94.1 25.554C94.7933 26.4033 95.5733 27.1487 96.44 27.79C97.3067 28.4313 98.1993 28.9687 99.118 29.402C98.91 29.558 98.6587 29.7747 98.364 30.052C98.0867 30.3467 97.818 30.65 97.558 30.962C97.3153 31.2913 97.1333 31.5773 97.012 31.82C94.6893 30.5893 92.878 29.0207 91.578 27.114C90.2953 25.2073 89.472 22.9193 89.108 20.25H87.756V27.868C88.5187 27.6773 89.212 27.504 89.836 27.348C90.46 27.1747 90.9367 27.0273 91.266 26.906V29.636C90.8153 29.8267 90.1913 30.0347 89.394 30.26C88.614 30.4853 87.7647 30.7107 86.846 30.936C85.9447 31.1613 85.0607 31.3607 84.194 31.534C83.3447 31.7247 82.6253 31.872 82.036 31.976ZM75.328 32.002V9.07H83.336L84.506 10.084C84.3673 10.448 84.142 10.9593 83.83 11.618C83.518 12.2593 83.1713 12.944 82.79 13.672C82.426 14.3827 82.088 15.0413 81.776 15.648C81.464 16.2547 81.23 16.7053 81.074 17C81.9407 17.7453 82.6427 18.5513 83.18 19.418C83.7173 20.2847 83.986 21.212 83.986 22.2C83.986 23.7947 83.596 24.9733 82.816 25.736C82.036 26.4987 81.0047 26.88 79.722 26.88H78.916C78.8813 26.4467 78.7947 25.9353 78.656 25.346C78.5173 24.7567 78.37 24.2887 78.214 23.942H79.176C80.372 23.942 80.97 23.162 80.97 21.602C80.97 20.7353 80.71 19.9467 80.19 19.236C79.6873 18.5253 79.0287 17.8493 78.214 17.208C78.318 17 78.4913 16.6447 78.734 16.142C78.994 15.622 79.2627 15.0587 79.54 14.452C79.8347 13.8453 80.0947 13.282 80.32 12.762C80.5627 12.2247 80.7187 11.8347 80.788 11.592H78.162V32.002H75.328ZM87.756 17.702H93.658V15.778H87.756V17.702ZM87.756 13.516H93.658V11.644H87.756V13.516ZM121.478 32.21C121.27 31.8113 120.993 31.3693 120.646 30.884C120.317 30.3987 119.944 29.9047 119.528 29.402C118.731 29.5407 117.812 29.688 116.772 29.844C115.732 30 114.631 30.156 113.47 30.312C112.309 30.468 111.156 30.6067 110.012 30.728C108.885 30.8667 107.828 30.9793 106.84 31.066C105.869 31.17 105.037 31.248 104.344 31.3L103.746 28.206C104.127 28.206 104.595 28.1973 105.15 28.18C105.722 28.1453 106.337 28.102 106.996 28.05C107.395 27.4433 107.802 26.724 108.218 25.892C108.651 25.06 109.033 24.2713 109.362 23.526H102.966V20.744H124.26V23.526H117.994C118.462 23.89 118.982 24.3493 119.554 24.904C120.126 25.4587 120.707 26.0567 121.296 26.698C121.885 27.322 122.423 27.9373 122.908 28.544C123.411 29.1507 123.809 29.6793 124.104 30.13C123.879 30.2687 123.593 30.468 123.246 30.728C122.899 30.988 122.561 31.248 122.232 31.508C121.903 31.7853 121.651 32.0193 121.478 32.21ZM102.81 19.158C102.689 18.9153 102.515 18.6293 102.29 18.3C102.065 17.9707 101.822 17.65 101.562 17.338C101.302 17.026 101.059 16.7747 100.834 16.584C101.909 16.168 103.009 15.6307 104.136 14.972C105.28 14.296 106.381 13.5593 107.438 12.762C108.495 11.9473 109.44 11.124 110.272 10.292C111.104 9.44267 111.745 8.64533 112.196 7.9L115.134 8.316C115.689 9.06133 116.399 9.824 117.266 10.604C118.133 11.384 119.077 12.1293 120.1 12.84C121.14 13.5333 122.197 14.166 123.272 14.738C124.347 15.31 125.378 15.778 126.366 16.142C126.106 16.35 125.829 16.636 125.534 17C125.239 17.3467 124.962 17.702 124.702 18.066C124.459 18.43 124.277 18.742 124.156 19.002C123.48 18.7073 122.778 18.3607 122.05 17.962C121.339 17.5633 120.62 17.13 119.892 16.662V18.872H107.334V16.584C106.537 17.1213 105.748 17.6153 104.968 18.066C104.188 18.4993 103.469 18.8633 102.81 19.158ZM108.062 16.064H119.034C117.977 15.336 116.971 14.556 116.018 13.724C115.065 12.8747 114.259 12.0253 113.6 11.176C113.011 11.956 112.222 12.7793 111.234 13.646C110.246 14.4953 109.189 15.3013 108.062 16.064ZM110.818 27.738C111.979 27.634 113.132 27.5213 114.276 27.4C115.42 27.2613 116.46 27.1313 117.396 27.01C116.651 26.2473 115.992 25.658 115.42 25.242L117.448 23.526H113.002C112.707 24.202 112.361 24.9127 111.962 25.658C111.581 26.386 111.199 27.0793 110.818 27.738ZM138.534 30.988V27.998H144.384V18.95H139.99V15.96H144.384V8.29H147.53V15.96H152.054V18.95H147.53V27.998H152.756V30.988H138.534ZM133.36 31.82V23.162C132.875 23.5953 132.372 24.0287 131.852 24.462C131.332 24.878 130.795 25.2767 130.24 25.658C130.015 25.3113 129.685 24.904 129.252 24.436C128.819 23.968 128.446 23.604 128.134 23.344C128.827 22.9453 129.555 22.4513 130.318 21.862C131.098 21.2553 131.861 20.5967 132.606 19.886C133.351 19.158 134.027 18.43 134.634 17.702C135.241 16.9567 135.726 16.2633 136.09 15.622H129.512V12.814H133.334V8.264H136.35V12.814H138.742L140.146 13.984C139.418 15.6133 138.473 17.208 137.312 18.768C137.763 19.08 138.248 19.4093 138.768 19.756C139.305 20.0853 139.817 20.3973 140.302 20.692C140.787 20.9693 141.186 21.1947 141.498 21.368C141.325 21.5413 141.117 21.784 140.874 22.096C140.649 22.3907 140.423 22.7027 140.198 23.032C139.99 23.344 139.825 23.6127 139.704 23.838C139.236 23.526 138.707 23.1707 138.118 22.772C137.529 22.356 136.948 21.9487 136.376 21.55V31.82H133.36ZM157.358 31.898V20.276H179.068V29.22C179.068 30.1213 178.808 30.78 178.288 31.196C177.768 31.612 176.971 31.82 175.896 31.82H173.79C173.755 31.456 173.677 31.014 173.556 30.494C173.452 29.974 173.331 29.5407 173.192 29.194H162.584V23.682H173.764V29.012H175.116C175.463 29.012 175.705 28.96 175.844 28.856C176 28.7347 176.078 28.5093 176.078 28.18V22.59H160.348V31.898H157.358ZM161.44 19.21V13.672H174.934V19.21H161.44ZM156.552 12.58V10.11H166.562V8.082H169.812V10.11H179.822V12.58H156.552ZM164.3 17.13H172.048V15.648H164.3V17.13ZM165.366 27.114H170.956V25.658H165.366V27.114ZM191.626 32.002V26.828C191.123 27.0187 190.534 27.2267 189.858 27.452C189.199 27.6773 188.506 27.9027 187.778 28.128C187.067 28.3533 186.391 28.5613 185.75 28.752C185.109 28.9427 184.563 29.0987 184.112 29.22L183.228 26.36C183.453 26.3253 183.757 26.2647 184.138 26.178C184.519 26.074 184.953 25.9613 185.438 25.84V11.774H183.618V9.044H196.332V10.864H206.264C206.039 15.8907 204.895 20.1893 202.832 23.76C203.543 24.7133 204.331 25.58 205.198 26.36C206.082 27.14 207.035 27.8333 208.058 28.44C207.694 28.752 207.304 29.1593 206.888 29.662C206.472 30.1473 206.151 30.5807 205.926 30.962C205.007 30.3033 204.141 29.5927 203.326 28.83C202.511 28.0673 201.757 27.244 201.064 26.36C199.712 28.0933 198.091 29.636 196.202 30.988C196.081 30.7973 195.873 30.52 195.578 30.156C195.301 29.8093 195.015 29.4887 194.72 29.194V32.002H191.626ZM194.72 28.414C195.656 27.7727 196.514 27.0707 197.294 26.308C198.074 25.5453 198.767 24.7393 199.374 23.89C198.594 22.5553 197.935 21.1427 197.398 19.652C196.878 18.144 196.497 16.558 196.254 14.894L199.036 14.4C199.331 16.74 200.015 18.9413 201.09 21.004C201.645 19.8253 202.078 18.6207 202.39 17.39C202.719 16.142 202.927 14.9027 203.014 13.672H195.916V11.774H194.72V28.414ZM188.532 25.06C189.139 24.904 189.711 24.7567 190.248 24.618C190.785 24.462 191.245 24.3233 191.626 24.202V22.018H188.532V25.06ZM188.532 19.444H191.626V16.896H188.532V19.444ZM188.532 14.322H191.626V11.774H188.532V14.322ZM212.764 32.21C212.608 31.794 212.365 31.3173 212.036 30.78C211.724 30.2427 211.412 29.8093 211.1 29.48C211.672 29.3413 212.305 29.142 212.998 28.882C213.709 28.622 214.419 28.3273 215.13 27.998C215.841 27.6687 216.508 27.322 217.132 26.958C217.773 26.5767 218.311 26.2127 218.744 25.866H210.684V23.266H212.426L212.14 9.486C212.608 9.486 213.137 9.45133 213.726 9.382C214.315 9.31267 214.896 9.20867 215.468 9.07C216.057 8.914 216.569 8.74067 217.002 8.55L217.938 9.98V8.94H227.584V23.266H230.418L230.47 20.822H228.156V18.43H230.522L230.548 16.194H228.156V13.776H230.6L230.652 11.592H228.13V9.148H233.408L233.122 23.266H234.89V25.866H226.674C227.107 26.2127 227.636 26.5767 228.26 26.958C228.901 27.322 229.577 27.6687 230.288 27.998C230.999 28.3273 231.701 28.622 232.394 28.882C233.105 29.142 233.746 29.3413 234.318 29.48C234.006 29.8093 233.685 30.2427 233.356 30.78C233.044 31.3173 232.81 31.794 232.654 32.21C231.787 31.9327 230.834 31.5513 229.794 31.066C228.771 30.598 227.775 30.0693 226.804 29.48C225.851 28.8733 225.036 28.2753 224.36 27.686L226.102 25.866H219.316L221.058 27.686C220.399 28.2753 219.585 28.8733 218.614 29.48C217.643 30.0693 216.638 30.598 215.598 31.066C214.575 31.5513 213.631 31.9327 212.764 32.21ZM220.096 23.266H225.4V11.306H220.096V23.266ZM220.798 22.018V15.752H224.698V22.018H220.798ZM215.13 23.266H217.938V10.89C217.487 11.046 216.967 11.1933 216.378 11.332C215.806 11.4707 215.312 11.566 214.896 11.618L214.922 13.776H217.34V16.194H214.974L215.026 18.404H217.34V20.822H215.078L215.13 23.266ZM220.694 14.504V12.502H224.776V14.504H220.694ZM222.332 19.99H223.164V17.78H222.332V19.99ZM248.67 32.158V26.984C247.89 27.6773 247.006 28.336 246.018 28.96C245.047 29.584 244.042 30.1473 243.002 30.65C241.979 31.1527 240.983 31.5687 240.012 31.898C239.925 31.69 239.795 31.43 239.622 31.118C239.449 30.8233 239.258 30.52 239.05 30.208C238.842 29.9133 238.643 29.6793 238.452 29.506C239.301 29.246 240.211 28.8993 241.182 28.466C242.153 28.0153 243.106 27.5213 244.042 26.984C244.995 26.4293 245.845 25.8747 246.59 25.32H238.504V22.954H248.67V21.784H241.208V19.522H248.67V18.378H240.038V16.064H244.77C244.649 15.7693 244.527 15.4833 244.406 15.206C244.285 14.9113 244.155 14.6513 244.016 14.426H238.504V12.06H242.196C242.023 11.6093 241.815 11.1153 241.572 10.578C241.347 10.0407 241.113 9.60733 240.87 9.278L243.496 8.212C243.669 8.472 243.851 8.81 244.042 9.226C244.25 9.62467 244.441 10.0233 244.614 10.422C244.787 10.8033 244.926 11.124 245.03 11.384L243.392 12.06H246.278V8.238H249.112V12.06H250.906V8.238H253.766V12.06H256.834L254.728 11.332C254.901 11.0893 255.092 10.7773 255.3 10.396C255.525 9.99733 255.733 9.59867 255.924 9.2C256.132 8.784 256.279 8.45467 256.366 8.212L259.226 9.044C259.07 9.33867 258.879 9.68533 258.654 10.084C258.429 10.4827 258.203 10.864 257.978 11.228C257.77 11.5747 257.597 11.852 257.458 12.06H261.67V14.426H256.132C255.907 15.0153 255.681 15.5613 255.456 16.064H259.902V18.378H251.556V19.522H258.862V21.784H251.556V22.954H261.696V25.32H253.584C254.329 25.8747 255.17 26.4293 256.106 26.984C257.042 27.5213 257.995 28.0067 258.966 28.44C259.937 28.8733 260.847 29.22 261.696 29.48C261.523 29.6533 261.332 29.8873 261.124 30.182C260.916 30.494 260.725 30.806 260.552 31.118C260.379 31.43 260.249 31.69 260.162 31.898C259.209 31.5687 258.221 31.1527 257.198 30.65C256.175 30.1647 255.179 29.61 254.208 28.986C253.237 28.362 252.353 27.7033 251.556 27.01V32.158H248.67ZM248.02 16.064H252.154C252.275 15.8213 252.397 15.5613 252.518 15.284C252.639 14.9893 252.761 14.7033 252.882 14.426H247.318C247.457 14.7033 247.587 14.9893 247.708 15.284C247.829 15.5787 247.933 15.8387 248.02 16.064Z" fill="black"/>
<g clip-path="url(#clip0_99_217)">
<path d="M14.1503 6.85378L14.7267 6.51952C15.9346 5.81934 17.2351 5.06127 18.4928 4.32791C19.2399 3.89252 19.9793 3.46099 20.6904 3.04721L23.7975 1.24004C23.9345 1.16053 24.0715 1.08024 24.2093 1.00073H0V6.38442H8.81889V33.9876H14.1549V32.348C14.1549 24.1751 14.1549 15.7237 14.1503 7.52539V6.85455V6.85378Z" fill="#156F9A"/>
<path d="M23.799 14.1195C23.8426 14.0902 23.8977 14.0531 23.9636 14.0145L24.3417 13.7945C27.8345 11.7612 31.4421 9.66143 35 7.5941C34.9969 5.51365 34.9969 3.40927 34.9969 1.36279L15.7991 12.537C15.9025 12.7223 16.005 12.9075 16.1084 13.0928C17.9815 16.4717 19.8546 19.8506 21.7276 23.2295L21.8409 23.4341C23.7929 26.9558 25.7448 30.4775 27.6937 34.0007C29.6333 33.9984 31.573 33.9984 33.5127 33.9984H33.8625L22.8437 14.7502L23.8005 14.1203L23.799 14.1195Z" fill="#156F9A"/>
</g>
<defs>
<clipPath id="clip0_99_217">
<rect width="35" height="33" fill="white" transform="translate(0 1)"/>
</clipPath>
</defs>
</svg>
